<svg fill="none" xmlns="http://www.w3.org/2000/svg">
    <symbol id="arrow-down" viewBox="0 0 59 67">
        <path
                fill-rule="evenodd"
                clip-rule="evenodd"
                d="M0.0507797 37.1882L29.4012 66.0317L58.7516 36.3674L53.8107 31.4783L32.9008 52.6118L32.9008 0.792585L25.9015 0.890462L25.9015 52.7097L4.99164 32.161L0.0507797 37.1882Z"
                fill="currentColor"
        />
    </symbol>
    <symbol id="fat-arrow" viewBox="0 0 39 38">
        <path d="M6.17904 31.7806L34.1157 3.84396M34.1157 3.84396L34.3232 27.6612M34.1157 3.84396L9.96252 3.97244" stroke="#DCDCDC" stroke-width="7.46516" stroke-linecap="square"/>
    </symbol>
<!--    <symbol id="arrow-left-small" viewBox="0 0 19 17">-->
<!--        <path fill-rule="evenodd" d="M17.0913 8.49979L2.90686 8.49979M1.90686 8.49979L8.32317 1.9707M1.90686 8.49979L8.50578 15.0289"-->
<!--              stroke="currentColor" stroke-width="2" stroke-linecap="square" fill="currentColor"/>-->
<!--    </symbol>-->
    <symbol id="triangle" viewBox="0 0 30 34">
        <path
                d="M29.5938 17.1158L0.767662 33.7586V0.47308L29.5938 17.1158Z"
                fill="#DCDCDC"
        />
    </symbol>
    <symbol id="x-small" viewBox="0 0 8 8">
        <path d="M1 0.866211L7.22469 7.13321" stroke="white" stroke-linecap="round"/>
        <path d="M6.99023 0.866211L0.765544 7.13321" stroke="white" stroke-linecap="round"/>
    </symbol>
    <symbol id="cross" viewBox="0 0 25 25">
        <path fill-rule="evenodd" clip-rule="evenodd"
              d="M7.0381 18.6314C10.046 15.6235 14.9228 15.6235 17.9306 18.6314L23.0234 23.7241C23.2186 23.9194 23.5352 23.9194 23.7305 23.7241C23.9257 23.5289 23.9257 23.2123 23.7305 23.017L18.6338 17.9204C15.6281 14.9147 15.6281 10.0414 18.6338 7.03567L23.7227 1.94685C23.9179 1.75159 23.9179 1.43501 23.7227 1.23975C23.5274 1.04448 23.2108 1.04448 23.0155 1.23975L17.9267 6.32855C14.921 9.33429 10.0477 9.33429 7.04201 6.32856L1.9532 1.23975C1.75794 1.04448 1.44136 1.04448 1.24609 1.23975C1.05083 1.43501 1.05083 1.75159 1.24609 1.94685L6.3349 7.03566C9.34064 10.0414 9.34064 14.9147 6.33491 17.9204L1.23828 23.017C1.04302 23.2123 1.04302 23.5289 1.23828 23.7241C1.43354 23.9194 1.75012 23.9194 1.94539 23.7241L7.0381 18.6314Z"
              fill="currentColor"/>
        <path d="M1.94539 23.7241L1.23828 23.017L1.94539 23.7241ZM1.23828 23.017L0.531173 22.3099L1.23828 23.017ZM6.33491 17.9204L7.04201 18.6275L6.33491 17.9204ZM1.24609 1.94685L1.9532 1.23975L1.24609 1.94685ZM1.9532 1.23975L1.24609 1.94685L1.9532 1.23975ZM17.9267 6.32855L18.6338 7.03566L17.9267 6.32855ZM7.04201 6.32856L6.33491 7.03567L7.04201 6.32856ZM23.0155 1.23975L22.3084 0.53264L23.0155 1.23975ZM23.7227 1.94685L24.4298 2.65396L23.7227 1.94685ZM7.0381 18.6314L7.74521 19.3385L7.0381 18.6314ZM23.7305 23.017L18.6377 17.9243L17.2235 19.3385L22.3163 24.4312L23.7305 23.017ZM17.9267 18.6275L23.0234 23.7241L24.4376 22.3099L19.341 17.2133L17.9267 18.6275ZM23.0156 1.23975L17.9267 6.32856L19.3409 7.74277L24.4298 2.65396L23.0156 1.23975ZM18.6338 7.03566L23.7227 1.94685L22.3084 0.53264L17.2196 5.62145L18.6338 7.03566ZM1.24609 1.94685L6.33491 7.03567L7.74912 5.62145L2.66031 0.532639L1.24609 1.94685ZM7.04201 6.32855L1.9532 1.23975L0.538987 2.65396L5.62779 7.74277L7.04201 6.32855ZM1.94539 23.7241L7.04201 18.6275L5.6278 17.2133L0.531173 22.3099L1.94539 23.7241ZM6.331 17.9243L1.23828 23.017L2.65249 24.4312L7.74521 19.3385L6.331 17.9243ZM0.531173 24.4312C1.11696 25.017 2.06671 25.017 2.65249 24.4312L1.23828 23.017C1.43354 22.8218 1.75012 22.8218 1.94539 23.017L0.531173 24.4312ZM0.531173 22.3099C-0.0546136 22.8957 -0.0546137 23.8454 0.531173 24.4312L1.94539 23.017C2.14065 23.2123 2.14065 23.5289 1.94539 23.7241L0.531173 22.3099ZM5.62779 7.74277C8.24301 10.358 8.24301 14.5981 5.6278 17.2133L7.04201 18.6275C10.4383 15.2312 10.4383 9.72481 7.04201 6.32855L5.62779 7.74277ZM0.538987 0.532639C-0.046798 1.11842 -0.0468013 2.06817 0.538987 2.65396L1.9532 1.23975C2.14846 1.43501 2.14846 1.75159 1.9532 1.94685L0.538987 0.532639ZM2.66031 0.532639C2.07452 -0.0531473 1.12477 -0.0531468 0.538987 0.532639L1.9532 1.94685C1.75794 2.14211 1.44136 2.14211 1.24609 1.94685L2.66031 0.532639ZM17.2196 5.62145C14.6044 8.23666 10.3643 8.23666 7.74912 5.62145L6.33491 7.03567C9.73117 10.4319 15.2376 10.4319 18.6338 7.03566L17.2196 5.62145ZM24.4298 0.532641C23.844 -0.0531427 22.8942 -0.0531502 22.3084 0.53264L23.7227 1.94685C23.5274 2.14212 23.2108 2.14211 23.0155 1.94685L24.4298 0.532641ZM24.4298 2.65396C25.0156 2.06817 25.0155 1.11843 24.4298 0.532641L23.0155 1.94685C22.8203 1.75159 22.8203 1.43501 23.0156 1.23975L24.4298 2.65396ZM19.341 17.2133C16.7257 14.5981 16.7257 10.358 19.3409 7.74277L17.9267 6.32856C14.5305 9.72482 14.5305 15.2312 17.9267 18.6275L19.341 17.2133ZM24.4376 24.4312C25.0234 23.8454 25.0234 22.8957 24.4376 22.3099L23.0234 23.7241C22.8281 23.5289 22.8281 23.2123 23.0234 23.017L24.4376 24.4312ZM18.6377 17.9243C15.2393 14.5259 9.72941 14.5259 6.331 17.9243L7.74521 19.3385C10.3626 16.7211 14.6062 16.7211 17.2235 19.3385L18.6377 17.9243ZM22.3163 24.4312C22.902 25.017 23.8518 25.017 24.4376 24.4312L23.0234 23.017C23.2186 22.8218 23.5352 22.8218 23.7305 23.017L22.3163 24.4312Z"
              fill="currentColor"/>
    </symbol>
    <symbol id="cross-small" viewBox="0 0 20 20">
        <path fill-rule="evenodd" clip-rule="evenodd"
              d="M7.58481 12.7268C8.80848 11.5031 10.7924 11.5031 12.0161 12.7268L13.8782 14.5889C14.0734 14.7841 14.39 14.7841 14.5853 14.5889C14.7805 14.3936 14.7805 14.077 14.5853 13.8818L12.7232 12.0197C11.4995 10.796 11.4995 8.81206 12.7232 7.5884L14.5856 5.72599C14.7809 5.53073 14.7809 5.21415 14.5856 5.01888C14.3903 4.82362 14.0738 4.82362 13.8785 5.01888L12.0163 6.88113C10.7925 8.10489 8.8084 8.10488 7.58465 6.88113L5.7224 5.01888C5.52714 4.82362 5.21056 4.82362 5.0153 5.01888C4.82003 5.21415 4.82003 5.53073 5.0153 5.72599L6.87771 7.5884C8.10137 8.81207 8.10137 10.796 6.87771 12.0197L5.01562 13.8818C4.82036 14.077 4.82036 14.3936 5.01562 14.5889C5.21089 14.7841 5.52747 14.7841 5.72273 14.5889L7.58481 12.7268Z"
              fill="currentColor"/>
        <path d="M5.72273 14.5889L6.07628 14.9424L5.72273 14.5889ZM5.01562 13.8818L5.36918 14.2353L5.01562 13.8818ZM6.87771 12.0197L7.23126 12.3732L6.87771 12.0197ZM5.0153 5.72599L5.36885 5.37244L5.0153 5.72599ZM5.7224 5.01888L6.07596 4.66533L5.7224 5.01888ZM7.58465 6.88113L7.2311 7.23468L7.58465 6.88113ZM13.8785 5.01888L14.2321 5.37244L13.8785 5.01888ZM14.2317 14.2353L12.3696 12.3732L11.6625 13.0803L13.5246 14.9424L14.2317 14.2353ZM12.3696 12.3732L14.2317 14.2353L14.9388 13.5282L13.0767 11.6661L12.3696 12.3732ZM14.2321 5.37244L12.3696 7.23485L13.0768 7.94195L14.9392 6.07954L14.2321 5.37244ZM12.3698 7.23469L14.2321 5.37244L13.5249 4.66533L11.6627 6.52758L12.3698 7.23469ZM5.36885 5.37244L7.2311 7.23468L7.9382 6.52758L6.07596 4.66533L5.36885 5.37244ZM7.23126 7.23485L5.36885 5.37244L4.66174 6.07954L6.52415 7.94196L7.23126 7.23485ZM5.36918 14.2353L7.23126 12.3732L6.52415 11.6661L4.66207 13.5282L5.36918 14.2353ZM7.23126 12.3732L5.36918 14.2353L6.07628 14.9424L7.93837 13.0803L7.23126 12.3732ZM4.66207 14.9424C5.0526 15.3329 5.68576 15.3329 6.07628 14.9424L5.36918 14.2353L4.66207 14.9424ZM4.66207 13.5282C4.27155 13.9187 4.27155 14.5519 4.66207 14.9424L5.36918 14.2353L4.66207 13.5282ZM6.52415 7.94196C7.55255 8.97036 7.55256 10.6377 6.52415 11.6661L7.23126 12.3732C8.65019 10.9543 8.65019 8.65377 7.23126 7.23485L6.52415 7.94196ZM4.66174 4.66533C4.27122 5.05586 4.27122 5.68902 4.66174 6.07954L5.36885 5.37244L5.36885 5.37244L4.66174 4.66533ZM6.07596 4.66533C5.68543 4.27481 5.05227 4.27481 4.66174 4.66533L5.36885 5.37244L6.07596 4.66533ZM11.6627 6.52758C10.6342 7.55607 8.96669 7.55607 7.9382 6.52758L7.2311 7.23468C8.65011 8.6537 10.9508 8.6537 12.3698 7.23469L11.6627 6.52758ZM14.9392 4.66533C14.5486 4.27481 13.9155 4.27481 13.5249 4.66533L14.2321 5.37244L14.2321 5.37244L14.9392 4.66533ZM14.9392 6.07954C15.3297 5.68902 15.3297 5.05585 14.9392 4.66533L14.2321 5.37244L14.9392 6.07954ZM13.0767 11.6661C12.0483 10.6377 12.0484 8.97035 13.0768 7.94195L12.3696 7.23485C10.9507 8.65377 10.9507 10.9543 12.3696 12.3732L13.0767 11.6661ZM14.9388 14.9424C15.3294 14.5519 15.3294 13.9187 14.9388 13.5282L14.2317 14.2353L14.9388 14.9424ZM12.3696 12.3732C10.9507 10.9543 8.65019 10.9543 7.23126 12.3732L7.93837 13.0803C8.96677 12.0519 10.6341 12.0519 11.6625 13.0803L12.3696 12.3732ZM13.5246 14.9424C13.9151 15.3329 14.5483 15.3329 14.9388 14.9424L14.2317 14.2353L13.5246 14.9424Z"
              fill="currentColor"/>
    </symbol>
    <symbol id="user" viewBox="0 0 34 34">
        <path d="M28.3346 29.75V26.9167C28.3346 25.4138 27.7376 23.9724 26.6749 22.9097C25.6122 21.847 24.1709 21.25 22.668 21.25H11.3346C9.83174 21.25 8.3904 21.847 7.3277 22.9097C6.26499 23.9724 5.66797 25.4138 5.66797 26.9167V29.75"
              fill="currentColor"/>
        <path d="M16.9987 15.5833C20.1283 15.5833 22.6654 13.0463 22.6654 9.91667C22.6654 6.78705 20.1283 4.25 16.9987 4.25C13.8691 4.25 11.332 6.78705 11.332 9.91667C11.332 13.0463 13.8691 15.5833 16.9987 15.5833Z"
              fill="currentColor"/>
    </symbol>
    <symbol id="warning" viewBox="0 0 35 35">
        <path d="M17.5 12.3232V18.1565M17.5 30.625C10.2513 30.625 4.375 24.7487 4.375 17.5C4.375 10.2513 10.2513 4.375 17.5 4.375C24.7487 4.375 30.625 10.2513 30.625 17.5C30.625 24.7487 24.7487 30.625 17.5 30.625ZM17.5726 22.5315V22.6774L17.4274 22.6768V22.5315H17.5726Z"
              stroke="currentcolor" stroke-width="2" stroke-linecap="round" stroke-linejoin="round"/>
    </symbol>
    <symbol id="phone" viewBox="0 0 34 35">
        <path d="M31.167 24.0489V28.2915C31.1686 28.6853 31.0878 29.0752 30.9297 29.436C30.7717 29.7969 30.5399 30.1208 30.2491 30.3871C29.9584 30.6534 29.6152 30.8561 29.2414 30.9822C28.8677 31.1084 28.4716 31.1553 28.0787 31.1198C23.7194 30.647 19.5319 29.16 15.8529 26.7783C12.4299 24.6071 9.52791 21.7101 7.35285 18.2932C4.95866 14.6039 3.4687 10.4035 3.00369 6.03227C2.96828 5.6412 3.01484 5.24706 3.1404 4.87494C3.26595 4.50282 3.46774 4.16087 3.73294 3.87087C3.99813 3.58086 4.32091 3.34916 4.68072 3.1905C5.04054 3.03185 5.4295 2.94973 5.82285 2.94936H10.0729C10.7604 2.9426 11.4269 3.18564 11.9482 3.63316C12.4695 4.08068 12.81 4.70216 12.9062 5.38175C13.0856 6.73945 13.4182 8.07255 13.8979 9.35559C14.0885 9.86176 14.1297 10.4119 14.0167 10.9407C13.9037 11.4696 13.6412 11.955 13.2604 12.3395L11.4612 14.1355C13.4779 17.676 16.4145 20.6074 19.9612 22.6206L21.7604 20.8246C22.1455 20.4444 22.6318 20.1824 23.1616 20.0696C23.6914 19.9568 24.2425 19.998 24.7495 20.1882C26.0348 20.667 27.3703 20.9991 28.7304 21.1781C29.4185 21.2751 30.047 21.6211 30.4963 22.1504C30.9455 22.6797 31.1843 23.3554 31.167 24.0489Z"
              fill="currentColor"/>
    </symbol>
    <symbol id="arrow-top-right" viewBox="0 0 52 52">
        <path d="M15.168 36.8333L36.8346 15.1666M36.8346 15.1666H19.5013M36.8346 15.1666V32.5" stroke="currentColor"
              stroke-width="4" stroke-linecap="square"/>
    </symbol>
    <symbol id="telegram" viewBox="0 0 20 19">
        <path fill-rule="evenodd" clip-rule="evenodd"
              d="M2.49027 8.58866C7.16551 6.55172 10.2831 5.20884 11.843 4.56003C16.2967 2.70754 17.2222 2.38574 17.8254 2.37511C17.958 2.37278 18.2547 2.40566 18.4468 2.56157C18.6091 2.69322 18.6537 2.87107 18.6751 2.99589C18.6964 3.12071 18.723 3.40506 18.7019 3.62723C18.4605 6.16315 17.4162 12.3172 16.8849 15.1574C16.6601 16.3593 16.2175 16.7622 15.7889 16.8017C14.8576 16.8874 14.1504 16.1862 13.2484 15.5949C11.8368 14.6696 11.0394 14.0936 9.66933 13.1907C8.08593 12.1473 9.11238 11.5738 10.0148 10.6365C10.2509 10.3913 14.3543 6.65884 14.4338 6.32025C14.4437 6.27791 14.4529 6.12006 14.3591 6.03671C14.2654 5.95336 14.127 5.98186 14.0271 6.00453C13.8855 6.03666 11.6306 7.52708 7.26241 10.4758C6.62237 10.9153 6.04264 11.1294 5.52322 11.1182C4.9506 11.1058 3.84911 10.7944 3.03026 10.5283C2.02591 10.2018 1.22768 10.0292 1.29719 9.47471C1.33339 9.18592 1.73109 8.89057 2.49027 8.58866Z"
              fill="currentColor"/>
    </symbol>
    <symbol id="vk" viewBox="0 0 20 19">
        <g clip-path="url(#clip0_1801_609)">
            <path d="M11.3485 15.926C4.85694 15.926 1.15429 11.4757 1 4.07031H4.25172C4.35853 9.50565 6.75573 11.8079 8.65453 12.2827V4.07031H11.7165V8.75796C13.5915 8.55622 15.5613 6.42009 16.2259 4.07031H19.2878C18.7775 6.96601 16.6414 9.10214 15.1223 9.98033C16.6414 10.6924 19.0743 12.5556 20 15.926H16.6295C15.9056 13.6712 14.1019 11.9266 11.7165 11.6893V15.926H11.3485Z"
                  fill="currentColor"/>
        </g>
        <defs>
            <clipPath id="clip0_1801_609">
                <rect width="19" height="19" fill="currentColor" transform="translate(0.5)"/>
            </clipPath>
        </defs>
    </symbol>
    <symbol id="youtube" viewBox="0 0 19 18">
        <g clip-path="url(#clip0_1801_613)">
            <path d="M18.1432 4.6382C18.0414 4.25526 17.8408 3.90577 17.5616 3.62469C17.2823 3.34362 16.9341 3.14083 16.5518 3.03661C15.1445 2.6582 9.51953 2.6582 9.51953 2.6582C9.51953 2.6582 3.89453 2.6582 2.48726 3.03661C2.10498 3.14083 1.75678 3.34362 1.4775 3.62469C1.19822 3.90577 0.99766 4.25526 0.895895 4.6382C0.519531 6.05161 0.519531 8.99911 0.519531 8.99911C0.519531 8.99911 0.519531 11.9466 0.895895 13.36C0.99766 13.743 1.19822 14.0925 1.4775 14.3735C1.75678 14.6546 2.10498 14.8574 2.48726 14.9616C3.89453 15.34 9.51953 15.34 9.51953 15.34C9.51953 15.34 15.1445 15.34 16.5518 14.9616C16.9341 14.8574 17.2823 14.6546 17.5616 14.3735C17.8408 14.0925 18.0414 13.743 18.1432 13.36C18.5195 11.9466 18.5195 8.99911 18.5195 8.99911C18.5195 8.99911 18.5195 6.05161 18.1432 4.6382Z"
                  fill="currentColor"/>
            <path d="M7.67578 11.6772V6.32422L12.3803 9.0007L7.67578 11.6772Z" fill="#202020"/>
        </g>
        <defs>
            <clipPath id="clip0_1801_613">
                <rect width="18" height="18" fill="currentColor" transform="translate(0.5)"/>
            </clipPath>
        </defs>
    </symbol>
    <symbol id="dzen" viewBox="0 0 19 18">
        <g clip-path="url(#clip0_1801_618)">
            <path d="M18.499 9.09594C14.5136 9.21807 12.6944 9.32098 11.2352 10.7352C9.82098 12.1944 9.7245 14.0136 9.59594 17.999C14.49 17.9476 18.4476 13.99 18.499 9.09594Z"
                  fill="currentColor"/>
            <path d="M9.40305 17.999C9.28091 14.0136 9.17801 12.1944 7.76378 10.7352C6.30456 9.32098 4.48536 9.2245 0.5 9.09594C0.551383 13.99 4.50902 17.9476 9.40305 17.999Z"
                  fill="currentColor"/>
            <path d="M18.499 8.90305C18.4476 4.00902 14.49 0.051383 9.59594 0C9.71807 3.98536 9.82098 5.80456 11.2352 7.26378C12.6944 8.67801 14.5136 8.77448 18.499 8.90305Z"
                  fill="currentColor"/>
            <path d="M9.40305 1.04921e-09C4.50902 0.0513831 0.551383 4.00902 0.5 8.90305C4.48536 8.78091 6.30456 8.67801 7.76378 7.26378C9.17801 5.80456 9.27448 3.98536 9.40305 1.04921e-09Z"
                  fill="currentColor"/>
        </g>
        <defs>
            <clipPath id="clip0_1801_618">
                <rect width="18" height="18" fill="currentColor" transform="translate(0.5)"/>
            </clipPath>
        </defs>
    </symbol>
    <symbol id="dprofile" viewBox="0 0 17 16">
        <g clip-path="url(#clip0_3292_622)">
            <path fill-rule="evenodd" clip-rule="evenodd"
                  d="M15.1344 0H1.868C1.50518 0 1.15723 0.144128 0.900678 0.400678C0.644128 0.657228 0.5 1.00518 0.5 1.368L0.5 14.632C0.5 14.9948 0.644128 15.3428 0.900678 15.5993C1.15723 15.8559 1.50518 16 1.868 16H15.1344C15.4968 15.9994 15.8441 15.855 16.1002 15.5985C16.3562 15.342 16.5 14.9944 16.5 14.632V1.368C16.5 1.0056 16.3562 0.658006 16.1002 0.401525C15.8441 0.145045 15.4968 0.000635791 15.1344 0ZM15.4384 10.2904C15.4376 11.5221 14.9476 12.703 14.0763 13.5735C13.205 14.4441 12.0237 14.933 10.792 14.9328H6.2184C4.98694 14.9328 3.8059 14.4437 2.93502 13.573C2.06414 12.7024 1.57472 11.5215 1.5744 10.29V5.7072C1.57435 5.09736 1.69444 4.49349 1.92781 3.93008C2.16119 3.36666 2.50327 2.85474 2.93453 2.42356C3.36578 1.99238 3.87776 1.65038 4.44122 1.41711C5.00467 1.18383 5.60856 1.06384 6.2184 1.064H10.802C12.0336 1.06421 13.2148 1.55338 14.086 2.42403C14.9572 3.29467 15.447 4.47555 15.448 5.7072L15.4376 10.29L15.4384 10.2904Z"
                  fill="currentColor"/>
        </g>
        <defs>
            <clipPath id="clip0_3292_622">
                <rect width="16" height="16" fill="currentColor" transform="translate(0.5)"/>
            </clipPath>
        </defs>
    </symbol>
    <symbol id="behance" viewBox="0 0 18 17">
        <g clip-path="url(#clip0_1801_626)">
            <path fill-rule="evenodd" clip-rule="evenodd"
                  d="M5.42076 2.89356C5.8801 2.88503 6.33879 2.93212 6.78682 3.03381C7.16404 3.11617 7.52219 3.26942 7.84222 3.48543C8.13779 3.70022 8.37166 3.98898 8.52034 4.32273C8.69122 4.73314 8.77365 5.17496 8.76227 5.61937C8.78168 6.10734 8.65706 6.59024 8.40393 7.00787C8.13764 7.40232 7.76955 7.71734 7.33871 7.91951C7.92339 8.07714 8.43264 8.4382 8.7749 8.93775C9.10346 9.46706 9.2686 10.0815 9.24965 10.7042C9.26049 11.2007 9.15783 11.6931 8.94951 12.1439C8.75695 12.5372 8.475 12.8799 8.12623 13.1446C7.76715 13.4065 7.36308 13.6002 6.93408 13.7162C6.4892 13.8392 6.02961 13.901 5.56802 13.8999H0.5V2.89356H5.42076ZM5.12833 7.34518C5.48924 7.36006 5.84452 7.25201 6.13605 7.03873C6.27566 6.91444 6.38427 6.75921 6.45319 6.58545C6.52211 6.41169 6.54943 6.22422 6.53296 6.03803C6.5423 5.82055 6.499 5.60404 6.40673 5.40689C6.32846 5.24992 6.20676 5.11872 6.0561 5.02891C5.9035 4.93004 5.73206 4.8639 5.5526 4.83466C5.35788 4.79694 5.15974 4.77978 4.96143 4.78346H2.79593V7.355H5.12833V7.34518ZM5.25456 12.031C5.47282 12.034 5.69064 12.0104 5.90323 11.9609C6.0975 11.918 6.28175 11.8382 6.446 11.726C6.60691 11.6138 6.73692 11.4628 6.82398 11.287C6.92494 11.0628 6.97132 10.8179 6.95933 10.5724C6.98122 10.3486 6.95158 10.1228 6.87269 9.9123C6.7938 9.70176 6.66775 9.51209 6.50421 9.35781C6.15758 9.1025 5.73278 8.97602 5.30295 9.00016H2.79593V12.031H5.25456Z"
                  fill="currentColor"/>
            <path fill-rule="evenodd" clip-rule="evenodd"
                  d="M12.5196 11.9903C12.6998 12.1573 12.9121 12.286 13.1436 12.3684C13.375 12.4509 13.6208 12.4854 13.866 12.47C14.2548 12.4798 14.636 12.3615 14.9509 12.1334C15.2071 11.9668 15.4011 11.7203 15.5028 11.4321H17.3338C17.1387 12.2524 16.6623 12.9785 15.9874 13.484C15.3399 13.9137 14.5747 14.1314 13.798 14.1067C13.2437 14.114 12.6935 14.0098 12.1802 13.8003C11.7159 13.6066 11.2995 13.3139 10.96 12.9426C10.6218 12.5535 10.3621 12.1028 10.1949 11.6151C10.0073 11.07 9.91552 10.4966 9.92354 9.92016C9.92013 9.35342 10.015 8.79037 10.204 8.25606C10.458 7.50439 10.9435 6.85248 11.591 6.39389C12.2384 5.93529 13.0145 5.69359 13.8078 5.70347C14.3936 5.69122 14.9728 5.8283 15.4909 6.10178C15.9592 6.35859 16.3632 6.71823 16.6725 7.15368C16.9889 7.61059 17.2157 8.12341 17.3408 8.6649C17.478 9.24637 17.527 9.84517 17.486 10.4412H12.0322C11.9881 11.0012 12.1628 11.5565 12.5196 11.9903ZM14.9123 7.80445C14.7597 7.6518 14.5762 7.53363 14.374 7.45791C14.1719 7.38218 13.9559 7.35066 13.7405 7.36546C13.4548 7.35456 13.1712 7.41786 12.9172 7.54919C12.7159 7.66003 12.5382 7.80915 12.3941 7.98818C12.2664 8.15604 12.1712 8.34632 12.1136 8.54919C12.0616 8.71839 12.0292 8.89297 12.0168 9.06953H15.3948C15.3654 8.60926 15.1977 8.16858 14.9137 7.80515L14.9123 7.80445Z"
                  fill="currentColor"/>
            <path d="M11.5814 3.62844H15.8142V4.71049H11.5814V3.62844Z" fill="currentColor"/>
        </g>
        <defs>
            <clipPath id="clip0_1801_626">
                <rect width="17" height="17" fill="currentColor" transform="translate(0.5)"/>
            </clipPath>
        </defs>
    </symbol>
    <symbol id="instagram" viewBox="0 0 36 36">
        <path d="M27.3263 10.7406C26.1674 10.7429 25.225 9.80446 25.2228 8.64549C25.2205 7.48653 26.1589 6.54416 27.3184 6.5419C28.4779 6.53963 29.4203 7.47858 29.4225 8.63755C29.4242 9.79652 28.4858 10.7383 27.3263 10.7406Z" fill="#DCDCDC"/>
        <path fill-rule="evenodd" clip-rule="evenodd" d="M18.0167 26.9848C13.0549 26.9944 9.02411 22.98 9.01448 18.017C9.00483 13.0551 13.0203 9.02368 17.9822 9.01404C22.9451 9.00441 26.9765 13.0211 26.9861 17.9824C26.9958 22.9454 22.9791 26.9752 18.0167 26.9848ZM17.9884 12.1672C14.7678 12.1729 12.1607 14.7896 12.1664 18.0108C12.1727 21.2325 14.7899 23.839 18.0105 23.8328C21.2322 23.8266 23.8393 21.2104 23.833 17.9887C23.8268 14.7669 21.2095 12.161 17.9884 12.1672Z" fill="#DCDCDC"/>
        <path fill-rule="evenodd" clip-rule="evenodd" d="M6.50717 1.44278C7.61851 1.00732 8.89028 0.70907 10.7523 0.621185C12.6189 0.531606 13.2148 0.511187 17.9663 0.502118C22.7189 0.49305 23.3148 0.511183 25.1813 0.593965C27.044 0.674479 28.3163 0.968196 29.4299 1.39913C30.5821 1.84309 31.5596 2.44072 32.5337 3.41087C33.5078 4.38215 34.1077 5.35628 34.5573 6.50674C34.9922 7.61921 35.2904 8.88988 35.3789 10.7531C35.4673 12.6191 35.4889 13.2144 35.4979 17.9665C35.507 22.7181 35.4877 23.3146 35.4061 25.1823C35.325 27.0438 35.0319 28.3167 34.601 29.4298C34.1558 30.5819 33.5594 31.5594 32.5892 32.5336C31.6191 33.5082 30.6439 34.1076 29.4934 34.5578C28.3809 34.9921 27.1103 35.2904 25.2483 35.3794C23.3817 35.4678 22.7858 35.4888 18.0326 35.4979C13.2817 35.5069 12.6858 35.4888 10.8192 35.4066C8.95662 35.3249 7.68371 35.0318 6.57068 34.6014C5.41854 34.1558 4.44103 33.5598 3.46691 32.5891C2.49224 31.6184 1.89181 30.6437 1.44275 29.4933C1.00729 28.3814 0.710156 27.1101 0.621148 25.2486C0.532136 23.3815 0.511164 22.785 0.502099 18.0335C0.492999 13.2813 0.51172 12.686 0.593358 10.8194C0.675583 8.95622 0.967595 7.68384 1.39852 6.56967C1.8436 5.41807 2.44009 4.44112 3.41137 3.46644C4.38151 2.49232 5.35673 1.89128 6.50717 1.44278ZM7.70641 31.6615C8.32387 31.8991 9.25033 32.1826 10.9565 32.2569C12.8026 32.3368 13.3554 32.3544 18.0269 32.3453C22.7002 32.3368 23.253 32.3169 25.0986 32.2302C26.803 32.1491 27.7295 31.8622 28.3452 31.6218C29.1623 31.3026 29.744 30.921 30.3552 30.3092C30.9665 29.6951 31.3447 29.1117 31.6611 28.2946C31.8992 27.6766 32.1821 26.7495 32.2564 25.0434C32.3375 23.1983 32.3545 22.6449 32.3454 17.9722C32.3369 13.3006 32.3171 12.7472 32.2292 10.9016C32.1487 9.19661 31.8623 8.27012 31.6214 7.65492C31.3021 6.83673 30.9217 6.25612 30.3082 5.64431C29.6947 5.03251 29.1112 4.65544 28.2931 4.33906C27.6767 4.10035 26.7491 3.81797 25.0442 3.74371C23.198 3.66262 22.6446 3.64616 17.9719 3.65525C13.3004 3.66432 12.7476 3.68302 10.902 3.77035C9.19648 3.85142 8.27112 4.13776 7.65422 4.37875C6.83773 4.69797 6.25599 5.0773 5.64421 5.69138C5.03353 6.30544 4.65535 6.88776 4.33897 7.70652C4.10198 8.32343 3.81675 9.25105 3.74363 10.9561C3.6631 12.8022 3.6461 13.3556 3.65517 18.0272C3.66369 22.6999 3.68352 23.2533 3.77028 25.0978C3.85022 26.8039 4.13881 27.7293 4.37867 28.3468C4.69788 29.1627 5.07835 29.7444 5.69128 30.3562C6.30534 30.9658 6.88878 31.3451 7.70641 31.6615Z" fill="#DCDCDC"/>
    </symbol>
    <symbol id="alpa-mobile" viewBox="0 0 23 18">
        <path fill-rule="evenodd" clip-rule="evenodd" d="M5.11349 11.8909L3.89126 10.7576L2.66904 9.62425L1.44683 8.49093L0.224609 7.35759L1.44683 6.22426L3.89126 3.95761L5.11349 2.82427L6.33571 3.95761L7.55792 5.09094L8.78014 6.22426L10.0024 7.35759L8.78014 8.49093L7.55792 7.35759L5.11349 9.62425L6.33571 10.7576L5.11349 11.8909ZM6.33571 6.22426L3.89126 8.49093L2.66904 7.35759L5.11349 5.09094L6.33571 6.22426ZM10.0024 16.4242L11.2246 17.5576L12.4468 16.4242L11.2246 15.2909L13.669 13.0242L14.8912 11.8909L13.669 10.7576L12.4468 9.62425L11.2246 8.49093L10.0024 9.62425L7.55792 11.8909L6.33571 13.0242L7.55792 14.1576L8.78014 15.2909L10.0024 16.4242ZM10.0024 14.1576L12.4468 11.8909L11.2246 10.7576L8.78014 13.0242L10.0024 14.1576ZM17.3357 11.8909L16.1135 10.7576L14.8912 9.62425L13.669 8.49093L12.4468 7.35759L13.669 6.22426L16.1135 3.95761L17.3357 2.82427L18.5578 3.95761L19.78 5.09094L21.0024 6.22426L22.2246 7.35759L21.0024 8.49093L19.78 7.35759L17.3357 9.62425L18.5578 10.7576L17.3357 11.8909ZM18.5578 6.22426L16.1135 8.49093L14.8912 7.35759L17.3357 5.09094L18.5578 6.22426ZM7.55792 0.557617L6.33571 1.69095L10.0024 5.09094L11.2246 6.22426L12.4468 5.09094L16.1135 1.69095L14.8912 0.557617L11.2246 3.95761L7.55792 0.557617Z" fill="#E7E7E7"/>
    </symbol>
    <symbol id="mark-in-circle" viewBox="0 0 44 44">
        <g opacity="0.6">
            <path d="M15.2736 20.7312C14.4925 19.9501 13.2262 19.9501 12.4452 20.7312C11.6641 21.5122 11.6641 22.7786 12.4452 23.5596L15.2736 20.7312ZM19.4683 27.7543L18.0541 29.1685C18.8351 29.9495 20.1014 29.9496 20.8824 29.1686L19.4683 27.7543ZM32.9025 17.1496C33.6836 16.3686 33.6836 15.1023 32.9026 14.3212C32.1216 13.5401 30.8553 13.5401 30.0742 14.3211L32.9025 17.1496ZM12.4452 23.5596L18.0541 29.1685L20.8825 26.3401L15.2736 20.7312L12.4452 23.5596ZM20.8824 29.1686L32.9025 17.1496L30.0742 14.3211L18.0541 26.34L20.8824 29.1686Z" fill="#DCDCDC"/>
        </g>
        <circle cx="21.7568" cy="21.7568" r="19.7568" stroke="#DCDCDC" stroke-opacity="0.6" stroke-width="4"/>
    </symbol>
</svg>
