<svg width="200" height="52" viewBox="0 0 200 52" fill="none" xmlns="http://www.w3.org/2000/svg">
<path d="M7.9143 23.8363H24.8719V4.42792H11.6978L7.9143 23.8363ZM28.5522 1.12305V23.8363H31.8158V27.2402H0.5V23.8363H3.94928L8.71473 1.12305H28.5522Z" fill="#DCDCDC"/>
<path d="M54.4005 19.5907H70.9331L64.6988 4.47743H60.8246L54.4005 19.5907ZM67.1084 1.12305L78.2071 27.2402H74.3329L72.4927 22.9863H52.9853L51.1451 27.2402H47.1719L58.5594 1.12305H67.1084Z" fill="#DCDCDC"/>
<path d="M158.071 1.12305V4.47743H138.7V12.1764H156.087V15.5267H138.7V23.8363H158.781V27.2402H135.02V1.12305H158.071Z" fill="#DCDCDC"/>
<path d="M197.184 1.12305V4.47743H177.817V12.1764H195.204V15.5267H177.817V23.8363H197.894V27.2402H174.133V1.12305H197.184Z" fill="#DCDCDC"/>
<path d="M93.5547 27.3297L119.672 16.231L119.668 13.8338V11.4408L93.5547 0.337891V4.21214L116.28 13.8338L93.5547 23.4596V27.3297Z" fill="#DCDCDC"/>
<path d="M0.640255 47.8555L4.34533 39.6739H5.50243L9.21919 47.8555H7.99196L4.68428 40.3284H5.15179L1.84411 47.8555H0.640255ZM2.21813 45.8101L2.5337 44.875H7.13874L7.47769 45.8101H2.21813ZM13.4363 47.8555V39.6739H16.6271C17.344 39.6739 17.9557 39.7869 18.4622 40.0129C18.9686 40.2388 19.3582 40.5661 19.6309 40.9947C19.9037 41.4232 20.04 41.9336 20.04 42.5258C20.04 43.118 19.9037 43.6283 19.6309 44.0569C19.3582 44.4777 18.9686 44.8049 18.4622 45.0387C17.9557 45.2646 17.344 45.3776 16.6271 45.3776H14.0792L14.6051 44.8283V47.8555H13.4363ZM14.6051 44.9452L14.0792 44.3608H16.5921C17.3401 44.3608 17.905 44.201 18.2868 43.8816C18.6764 43.5621 18.8712 43.1102 18.8712 42.5258C18.8712 41.9414 18.6764 41.4894 18.2868 41.17C17.905 40.8505 17.3401 40.6908 16.5921 40.6908H14.0792L14.6051 40.1064V44.9452ZM23.4117 39.6739H24.7558L26.8947 42.666L29.0336 39.6739H30.4011L27.6311 43.6011L30.6232 47.8555H29.244L26.8947 44.5945L24.5571 47.8555H23.213L26.1934 43.6478L23.4117 39.6739ZM34.6266 47.8555V39.6739H35.7837V45.9854L40.6225 39.6739H41.6978V47.8555H40.5524V41.5557L35.7019 47.8555H34.6266ZM48.7251 47.8555V40.3869L49.0173 40.6908H45.9317V39.6739H52.6756V40.6908H49.59L49.8705 40.3869V47.8555H48.7251ZM57.9649 43.2037H62.1725V44.1971H57.9649V43.2037ZM58.0701 46.8386H62.8387V47.8555H56.9013V39.6739H62.6751V40.6908H58.0701V46.8386ZM72.9843 47.8555L70.0156 43.8231L70.9623 43.2387L74.3167 47.8555H72.9843ZM67.4793 47.8555V39.6739H68.6247V47.8555H67.4793ZM68.2741 44.2556V43.227H70.9272V44.2556H68.2741ZM71.0675 43.8933L69.9922 43.7296L72.9259 39.6739H74.1765L71.0675 43.8933ZM79.9113 47.8555V40.3869L80.2035 40.6908H77.1179V39.6739H83.8618V40.6908H80.7762L81.0567 40.3869V47.8555H79.9113ZM87.7103 46.8269C88.1155 46.975 88.4895 47.0139 88.8323 46.9438C89.1752 46.8659 89.4829 46.6049 89.7557 46.1607L90.1531 45.5296L90.2699 45.401L93.2737 39.6739H94.4308L90.7959 46.4062C90.5232 46.9204 90.2037 47.31 89.8375 47.575C89.4791 47.8321 89.0895 47.9723 88.6687 47.9957C88.2557 48.0269 87.835 47.949 87.4064 47.762L87.7103 46.8269ZM90.2349 46.4412L86.6467 39.6739H87.8973L90.8777 45.5062L90.2349 46.4412ZM98.4487 47.8555V39.6739H101.639C102.356 39.6739 102.968 39.7869 103.474 40.0129C103.981 40.2388 104.371 40.5661 104.643 40.9947C104.916 41.4232 105.052 41.9336 105.052 42.5258C105.052 43.118 104.916 43.6283 104.643 44.0569C104.371 44.4777 103.981 44.8049 103.474 45.0387C102.968 45.2646 102.356 45.3776 101.639 45.3776H99.0915L99.6174 44.8283V47.8555H98.4487ZM99.6174 44.9452L99.0915 44.3608H101.604C102.352 44.3608 102.917 44.201 103.299 43.8816C103.689 43.5621 103.884 43.1102 103.884 42.5258C103.884 41.9414 103.689 41.4894 103.299 41.17C102.917 40.8505 102.352 40.6908 101.604 40.6908H99.0915L99.6174 40.1064V44.9452ZM115.351 39.6739H116.519V47.8555H115.351V39.6739ZM110.652 47.8555H109.483V39.6739H110.652V47.8555ZM115.456 44.2088H110.535V43.192H115.456V44.2088ZM125.558 47.949C124.934 47.949 124.354 47.8438 123.816 47.6334C123.286 47.423 122.827 47.1308 122.437 46.7568C122.048 46.375 121.744 45.9309 121.525 45.4244C121.307 44.9179 121.198 44.3647 121.198 43.7647C121.198 43.1647 121.307 42.6115 121.525 42.105C121.744 41.5985 122.048 41.1583 122.437 40.7843C122.827 40.4025 123.286 40.1064 123.816 39.896C124.346 39.6856 124.927 39.5804 125.558 39.5804C126.181 39.5804 126.754 39.6856 127.276 39.896C127.806 40.0986 128.265 40.3908 128.655 40.7726C129.052 41.1466 129.356 41.5868 129.567 42.0933C129.785 42.5998 129.894 43.1569 129.894 43.7647C129.894 44.3725 129.785 44.9296 129.567 45.4361C129.356 45.9425 129.052 46.3867 128.655 46.7685C128.265 47.1425 127.806 47.4347 127.276 47.6451C126.754 47.8477 126.181 47.949 125.558 47.949ZM125.558 46.9087C126.01 46.9087 126.427 46.8308 126.808 46.675C127.198 46.5191 127.533 46.301 127.814 46.0205C128.102 45.7322 128.324 45.3971 128.48 45.0153C128.643 44.6335 128.725 44.2166 128.725 43.7647C128.725 43.3128 128.643 42.8959 128.48 42.5141C128.324 42.1323 128.102 41.8011 127.814 41.5206C127.533 41.2323 127.198 41.0102 126.808 40.8544C126.427 40.6986 126.01 40.6206 125.558 40.6206C125.098 40.6206 124.673 40.6986 124.284 40.8544C123.902 41.0102 123.567 41.2323 123.279 41.5206C122.99 41.8011 122.764 42.1323 122.601 42.5141C122.445 42.8959 122.367 43.3128 122.367 43.7647C122.367 44.2166 122.445 44.6335 122.601 45.0153C122.764 45.3971 122.99 45.7322 123.279 46.0205C123.567 46.301 123.902 46.5191 124.284 46.675C124.673 46.8308 125.098 46.9087 125.558 46.9087ZM135.652 43.2037H139.86V44.1971H135.652V43.2037ZM135.757 46.8386H140.526V47.8555H134.589V39.6739H140.362V40.6908H135.757V46.8386ZM151.111 47.8555V39.6739H157.282V40.6674H152.268V43.005H154.816C155.79 43.005 156.53 43.2076 157.036 43.6128C157.543 44.0179 157.796 44.6062 157.796 45.3776C157.796 46.1724 157.519 46.7841 156.966 47.2126C156.421 47.6412 155.638 47.8555 154.617 47.8555H151.111ZM152.268 46.9321H154.57C155.248 46.9321 155.758 46.8036 156.101 46.5464C156.452 46.2893 156.627 45.9075 156.627 45.401C156.627 44.4192 155.942 43.9283 154.57 43.9283H152.268V46.9321ZM162.465 47.8555V39.6739H163.622V43.1803H165.737V44.2322H163.622V47.8555H162.465ZM169.244 47.949C168.651 47.949 168.102 47.8477 167.596 47.6451C167.089 47.4347 166.649 47.1425 166.275 46.7685C165.901 46.3867 165.609 45.9425 165.398 45.4361C165.196 44.9296 165.094 44.3725 165.094 43.7647C165.094 43.1569 165.196 42.5998 165.398 42.0933C165.609 41.5868 165.901 41.1466 166.275 40.7726C166.649 40.3908 167.089 40.0986 167.596 39.896C168.102 39.6856 168.651 39.5804 169.244 39.5804C169.836 39.5804 170.385 39.6856 170.892 39.896C171.406 40.0986 171.85 40.3908 172.224 40.7726C172.598 41.1466 172.886 41.5868 173.089 42.0933C173.299 42.5998 173.405 43.1569 173.405 43.7647C173.405 44.3725 173.299 44.9296 173.089 45.4361C172.886 45.9425 172.598 46.3867 172.224 46.7685C171.85 47.1425 171.406 47.4347 170.892 47.6451C170.385 47.8477 169.836 47.949 169.244 47.949ZM169.244 46.8971C169.672 46.8971 170.066 46.823 170.424 46.675C170.79 46.5191 171.106 46.301 171.371 46.0205C171.644 45.74 171.854 45.4088 172.002 45.027C172.158 44.6452 172.236 44.2244 172.236 43.7647C172.236 43.305 172.158 42.8842 172.002 42.5024C171.854 42.1206 171.644 41.7894 171.371 41.5089C171.106 41.2284 170.79 41.0141 170.424 40.8661C170.066 40.7102 169.676 40.6323 169.255 40.6323C168.835 40.6323 168.441 40.7102 168.075 40.8661C167.716 41.0141 167.401 41.2284 167.128 41.5089C166.863 41.7894 166.653 42.1206 166.497 42.5024C166.349 42.8842 166.275 43.305 166.275 43.7647C166.275 44.2244 166.349 44.6452 166.497 45.027C166.653 45.4088 166.863 45.74 167.128 46.0205C167.401 46.301 167.716 46.5191 168.075 46.675C168.441 46.823 168.831 46.8971 169.244 46.8971ZM178.111 47.8555V39.6739H181.301C182.018 39.6739 182.63 39.7869 183.136 40.0129C183.643 40.2388 184.032 40.5661 184.305 40.9947C184.578 41.4232 184.714 41.9336 184.714 42.5258C184.714 43.118 184.578 43.6283 184.305 44.0569C184.032 44.4777 183.643 44.8049 183.136 45.0387C182.63 45.2646 182.018 45.3776 181.301 45.3776H178.753L179.279 44.8283V47.8555H178.111ZM179.279 44.9452L178.753 44.3608H181.266C182.014 44.3608 182.579 44.201 182.961 43.8816C183.351 43.5621 183.545 43.1102 183.545 42.5258C183.545 41.9414 183.351 41.4894 182.961 41.17C182.579 40.8505 182.014 40.6908 181.266 40.6908H178.753L179.279 40.1064V44.9452ZM192.941 47.949C192.318 47.949 191.737 47.8438 191.199 47.6334C190.67 47.423 190.21 47.1308 189.82 46.7568C189.431 46.375 189.127 45.9309 188.909 45.4244C188.69 44.9179 188.581 44.3647 188.581 43.7647C188.581 43.1647 188.69 42.6115 188.909 42.105C189.127 41.5985 189.431 41.1583 189.82 40.7843C190.21 40.4025 190.67 40.1064 191.199 39.896C191.729 39.6856 192.31 39.5804 192.941 39.5804C193.564 39.5804 194.137 39.6856 194.659 39.896C195.189 40.0986 195.649 40.3908 196.038 40.7726C196.436 41.1466 196.74 41.5868 196.95 42.0933C197.168 42.5998 197.277 43.1569 197.277 43.7647C197.277 44.3725 197.168 44.9296 196.95 45.4361C196.74 45.9425 196.436 46.3867 196.038 46.7685C195.649 47.1425 195.189 47.4347 194.659 47.6451C194.137 47.8477 193.564 47.949 192.941 47.949ZM192.941 46.9087C193.393 46.9087 193.81 46.8308 194.192 46.675C194.581 46.5191 194.916 46.301 195.197 46.0205C195.485 45.7322 195.707 45.3971 195.863 45.0153C196.027 44.6335 196.108 44.2166 196.108 43.7647C196.108 43.3128 196.027 42.8959 195.863 42.5141C195.707 42.1323 195.485 41.8011 195.197 41.5206C194.916 41.2323 194.581 41.0102 194.192 40.8544C193.81 40.6986 193.393 40.6206 192.941 40.6206C192.481 40.6206 192.057 40.6986 191.667 40.8544C191.285 41.0102 190.95 41.2323 190.662 41.5206C190.374 41.8011 190.148 42.1323 189.984 42.5141C189.828 42.8959 189.75 43.3128 189.75 43.7647C189.75 44.2166 189.828 44.6335 189.984 45.0153C190.148 45.3971 190.374 45.7322 190.662 46.0205C190.95 46.301 191.285 46.5191 191.667 46.675C192.057 46.8308 192.481 46.9087 192.941 46.9087Z" fill="#DCDCDC"/>
</svg>
