<svg width="44" height="44" viewBox="0 0 44 44" fill="none" xmlns="http://www.w3.org/2000/svg">
<g opacity="0.6">
<path d="M15.2736 20.7312C14.4925 19.9501 13.2262 19.9501 12.4452 20.7312C11.6641 21.5122 11.6641 22.7786 12.4452 23.5596L15.2736 20.7312ZM19.4683 27.7543L18.0541 29.1685C18.8351 29.9495 20.1014 29.9496 20.8824 29.1686L19.4683 27.7543ZM32.9025 17.1496C33.6836 16.3686 33.6836 15.1023 32.9026 14.3212C32.1216 13.5401 30.8553 13.5401 30.0742 14.3211L32.9025 17.1496ZM12.4452 23.5596L18.0541 29.1685L20.8825 26.3401L15.2736 20.7312L12.4452 23.5596ZM20.8824 29.1686L32.9025 17.1496L30.0742 14.3211L18.0541 26.34L20.8824 29.1686Z" fill="#DCDCDC"/>
</g>
<circle cx="21.7568" cy="21.7568" r="19.7568" stroke="#DCDCDC" stroke-opacity="0.6" stroke-width="4"/>
</svg>
